<svg width="48" height="32" viewBox="0 0 48 32" fill="none" xmlns="http://www.w3.org/2000/svg">
<path d="M0 3C0 1.34315 1.34315 0 3 0H45C46.6569 0 48 1.34315 48 3V29C48 30.6569 46.6569 32 45 32H3C1.34315 32 0 30.6569 0 29V3Z" fill="white"/>
<rect x="19.2416" y="8.11475" width="9.52077" height="15.5502" fill="#FF5F00"/>
<path d="M20.2223 15.8915C20.2199 12.8576 21.6127 9.99102 23.9993 8.1178C19.9448 4.93141 14.1224 5.39553 10.6239 9.18401C7.12538 12.9725 7.12538 18.8134 10.6239 22.6018C14.1224 26.3903 19.9448 26.8544 23.9993 23.668C21.6119 21.7942 20.219 18.9265 20.2223 15.8915Z" fill="#EB001B"/>
<path d="M40 15.8915C39.9999 19.6776 37.838 23.1314 34.4325 24.7859C31.027 26.4404 26.9757 26.0053 23.9993 23.6652C26.3848 21.7904 27.7777 18.9242 27.7777 15.8901C27.7777 12.856 26.3848 9.98978 23.9993 8.11497C26.9757 5.77491 31.027 5.33973 34.4325 6.99426C37.838 8.64879 39.9999 12.1025 40 15.8887V15.8915Z" fill="#F79E1B"/>
</svg>
