<svg width="48" height="32" viewBox="0 0 48 32" fill="none" xmlns="http://www.w3.org/2000/svg">
<path d="M0 3C0 1.34315 1.34315 0 3 0H45C46.6569 0 48 1.34315 48 3V29C48 30.6569 46.6569 32 45 32H3C1.34315 32 0 30.6569 0 29V3Z" fill="#22337F"/>
<path fill-rule="evenodd" clip-rule="evenodd" d="M31.7147 11.4426C31.1705 11.2309 30.3146 11 29.2484 11C26.5272 11 24.6118 12.4316 24.5959 14.4816C24.5785 15.998 25.9627 16.8437 27.0063 17.3477C28.0788 17.8643 28.4391 18.195 28.4348 18.6569C28.4275 19.3634 27.5788 19.6872 26.7875 19.6872C25.6855 19.6872 25.1001 19.5278 24.1949 19.134L23.8409 18.966L23.456 21.3274C24.0978 21.6213 25.2876 21.8763 26.5224 21.8897C29.4143 21.8897 31.2934 20.4754 31.3155 18.2863C31.3254 17.0838 30.592 16.1724 29.0036 15.4199C28.0418 14.9307 27.4515 14.6066 27.4582 14.1115C27.4588 13.673 27.9569 13.2036 29.0349 13.2036C29.9352 13.1893 30.5869 13.3946 31.0948 13.609L31.3419 13.7296L31.7147 11.4426ZM18.9787 21.7333L20.7005 11.1837H23.4528L21.7311 21.7333H18.9787ZM13.9757 18.3849L16.6696 11.1926H19.5863L15.2519 21.7224L12.339 21.7241L9.89143 12.5612C9.04526 12.0712 8.07974 11.6772 7 11.404L7.03652 11.1854H11.475C12.0727 11.2088 12.5563 11.4069 12.7227 12.0755L13.6872 16.9229L13.9757 18.3849ZM36.476 15.0443C36.476 15.0443 35.6076 17.3867 35.3795 17.9931H37.6645C37.5557 17.4657 37.0276 14.9477 37.0276 14.9477L36.8418 14.0378C36.7681 14.2475 36.6652 14.5256 36.5871 14.7365C36.518 14.9233 36.4684 15.0574 36.476 15.0443ZM36.648 11.1945H38.7751L41.0026 21.7371H38.448C38.448 21.7371 38.1953 20.5246 38.1128 20.1565C37.9003 20.1565 37.0114 20.155 36.1758 20.1535C35.4348 20.1522 34.7358 20.151 34.5876 20.151C34.4805 20.4365 34.0089 21.7371 34.0089 21.7371H31.118L35.2054 12.069C35.4945 11.3811 35.9883 11.1945 36.648 11.1945Z" fill="#FFFFFE"/>
</svg>
